<svg id="visual" viewBox="0 0 900 600" width="900" height="600" xmlns="http://www.w3.org/2000/svg" xmlns:xlink="http://www.w3.org/1999/xlink" version="1.1"><rect x="0" y="0" width="900" height="600" fill="#ffffff"></rect><path d="M0 440L21.5 440.2C43 440.3 86 440.7 128.8 435.5C171.7 430.3 214.3 419.7 257.2 404.8C300 390 343 371 385.8 372.8C428.7 374.7 471.3 397.3 514.2 400.7C557 404 600 388 642.8 381.5C685.7 375 728.3 378 771.2 387.5C814 397 857 413 878.5 421L900 429L900 601L878.5 601C857 601 814 601 771.2 601C728.3 601 685.7 601 642.8 601C600 601 557 601 514.2 601C471.3 601 428.7 601 385.8 601C343 601 300 601 257.2 601C214.3 601 171.7 601 128.8 601C86 601 43 601 21.5 601L0 601Z" fill="#00a0dc"></path><path d="M0 426L21.5 426.7C43 427.3 86 428.7 128.8 424.8C171.7 421 214.3 412 257.2 411C300 410 343 417 385.8 428.2C428.7 439.3 471.3 454.7 514.2 453.3C557 452 600 434 642.8 430.2C685.7 426.3 728.3 436.7 771.2 445.3C814 454 857 461 878.5 464.5L900 468L900 601L878.5 601C857 601 814 601 771.2 601C728.3 601 685.7 601 642.8 601C600 601 557 601 514.2 601C471.3 601 428.7 601 385.8 601C343 601 300 601 257.2 601C214.3 601 171.7 601 128.8 601C86 601 43 601 21.5 601L0 601Z" fill="#0096d3"></path><path d="M0 477L21.5 475C43 473 86 469 128.8 473.3C171.7 477.7 214.3 490.3 257.2 491.3C300 492.3 343 481.7 385.8 471C428.7 460.3 471.3 449.7 514.2 444.3C557 439 600 439 642.8 439.8C685.7 440.7 728.3 442.3 771.2 447.5C814 452.7 857 461.3 878.5 465.7L900 470L900 601L878.5 601C857 601 814 601 771.2 601C728.3 601 685.7 601 642.8 601C600 601 557 601 514.2 601C471.3 601 428.7 601 385.8 601C343 601 300 601 257.2 601C214.3 601 171.7 601 128.8 601C86 601 43 601 21.5 601L0 601Z" fill="#008dc9"></path><path d="M0 483L21.5 487.8C43 492.7 86 502.3 128.8 508.5C171.7 514.7 214.3 517.3 257.2 522.2C300 527 343 534 385.8 533.7C428.7 533.3 471.3 525.7 514.2 521.2C557 516.7 600 515.3 642.8 515.3C685.7 515.3 728.3 516.7 771.2 520.5C814 524.3 857 530.7 878.5 533.8L900 537L900 601L878.5 601C857 601 814 601 771.2 601C728.3 601 685.7 601 642.8 601C600 601 557 601 514.2 601C471.3 601 428.7 601 385.8 601C343 601 300 601 257.2 601C214.3 601 171.7 601 128.8 601C86 601 43 601 21.5 601L0 601Z" fill="#0084bf"></path><path d="M0 552L21.5 554.5C43 557 86 562 128.8 564C171.7 566 214.3 565 257.2 563C300 561 343 558 385.8 556.7C428.7 555.3 471.3 555.7 514.2 552.2C557 548.7 600 541.3 642.8 536.5C685.7 531.7 728.3 529.3 771.2 528C814 526.7 857 526.3 878.5 526.2L900 526L900 601L878.5 601C857 601 814 601 771.2 601C728.3 601 685.7 601 642.8 601C600 601 557 601 514.2 601C471.3 601 428.7 601 385.8 601C343 601 300 601 257.2 601C214.3 601 171.7 601 128.8 601C86 601 43 601 21.5 601L0 601Z" fill="#007bb5"></path></svg>